<svg width="1074" height="1074" viewBox="0 0 1074 1074" fill="none" xmlns="http://www.w3.org/2000/svg">
<rect x="3" y="3" width="1074" height="1074" stroke="transparent" stroke-width="6"/>
<path d="M190.458 407.788C203.181 409.656 213.783 407.958 222.265 402.695C230.916 397.432 237.277 390.302 241.349 381.304C245.59 372.306 247.965 362.205 248.473 351C248.88 341.905 248.365 333.082 246.929 324.529C246.376 321.243 248.842 318.15 252.172 318.15H610.455C613.324 318.15 615.649 320.477 615.649 323.348V388.075C615.649 390.946 613.324 393.273 610.455 393.273H319.072C316.628 393.273 314.527 394.982 313.931 397.353C309.478 415.078 301.653 430.016 290.458 442.167C278.584 455.409 264.419 465.34 247.965 471.961C231.51 478.582 213.868 481.893 195.038 481.893C176.209 481.893 158.143 478.243 140.84 470.943C123.537 463.643 109.288 452.438 98.0916 437.328C87.0653 422.219 79.9406 405.072 76.7176 385.888C73.6641 366.534 74.6819 346.162 79.771 324.771C84.662 304.875 93.882 285.641 107.431 267.067C109.127 264.742 112.407 264.324 114.681 266.089L165.329 305.417C167.657 307.224 168.005 310.598 166.234 312.955C160.027 321.215 155.549 329.907 152.799 339.032C149.746 349.727 148.982 359.998 150.509 369.845C152.036 379.522 156.107 387.84 162.723 394.801C169.339 401.762 178.584 406.091 190.458 407.788Z" fill="url(#paint0_linear_129_40)"/>
<path d="M468.575 659.642C464.165 659.642 458.736 658.708 452.29 656.841C446.913 655.141 441.476 652.26 435.98 648.198C434.024 646.751 431.344 646.716 429.336 648.09C426.008 650.367 422.039 652.69 417.43 655.058C411.323 658.114 404.453 659.642 396.82 659.642H241.454C238.585 659.642 236.26 657.315 236.26 654.444V589.717C236.26 586.846 238.585 584.519 241.454 584.519H295.216C298.901 584.519 301.414 580.785 300.029 577.368L263.287 486.675C262.215 484.029 263.477 481.012 266.114 479.919L325.973 455.123C328.64 454.018 331.696 455.301 332.776 457.98L380.574 576.513C381.668 579.225 384.853 580.556 387.124 578.715C388.936 577.247 390.471 575.447 391.73 573.314C394.105 569.409 395.293 563.383 395.293 555.234V408.657C395.293 405.787 397.618 403.459 400.487 403.459H464.908C467.777 403.459 470.102 405.787 470.102 408.657V555.234C470.102 562.873 471.035 568.73 472.901 572.805C474.937 576.879 477.481 579.765 480.535 581.463C483.758 583.161 487.405 584.095 491.476 584.264C494.186 584.373 497.035 584.447 500.023 584.486C502.891 584.523 505.217 586.846 505.217 589.717V654.444C505.217 657.315 502.891 659.642 500.023 659.642H468.575Z" fill="url(#paint1_linear_129_40)"/>
<path d="M653.967 529.259C656.835 529.259 659.161 531.586 659.161 534.457V596.997C659.161 606.504 657.125 615.162 653.054 622.972C649.152 630.781 644.148 637.402 638.041 642.835C631.934 648.098 625.403 652.257 618.448 655.313C611.493 658.199 605.132 659.642 599.364 659.642H505.471C502.757 659.642 500.382 658.878 498.346 657.35C496.141 655.822 495.038 654.464 495.038 653.276V590.376C495.038 588.509 496.311 587.065 498.855 586.047C501.23 585.028 503.435 584.519 505.471 584.519H556.616C559.67 584.519 562.808 584.349 566.031 584.01C569.424 583.67 572.392 582.567 574.937 580.699C577.651 578.662 579.856 575.861 581.552 572.296C583.249 568.561 584.097 563.467 584.097 557.016V534.457C584.097 531.586 586.422 529.259 589.291 529.259H653.967ZM604.917 756.665C600.637 756.665 598.059 761.694 599.712 765.645C599.949 766.213 600.173 766.785 600.382 767.361C601.739 771.266 602.418 775.51 602.418 780.094C602.418 790.11 598.855 798.599 591.731 805.559C584.606 812.52 576.039 816 566.031 816C555.174 816 546.184 812.52 539.059 805.559C531.934 798.599 528.372 790.11 528.372 780.094C528.372 775.51 529.05 771.266 530.407 767.361C530.617 766.785 530.84 766.213 531.078 765.645C532.73 761.694 530.152 756.665 525.872 756.665H496.67C493.801 756.665 491.476 754.338 491.476 751.467V705.076C491.476 702.205 493.801 699.878 496.67 699.878H634.12C636.988 699.878 639.313 702.205 639.313 705.076V751.467C639.313 754.338 636.988 756.665 634.12 756.665H604.917Z" fill="url(#paint2_linear_129_40)"/>
<path d="M875.756 561.746C875.756 561.746 874.656 561.746 869.462 561.746C864.268 561.746 860.805 561.746 853.364 561.746C845.224 561.746 845.221 561.746 832.56 561.746C816.853 561.746 830.172 561.746 815.487 561.746C815.127 561.746 814.749 561.784 814.397 561.858L801.771 564.519C791.254 566.556 781.161 570.206 771.492 575.469C764.819 579.101 758.63 583.703 752.927 589.276C749.792 592.339 752.116 597.369 756.498 597.369H776.053C778.785 597.369 781.05 599.487 781.235 602.216L785.619 666.943C785.823 669.945 783.444 672.492 780.437 672.492H678.126C676.806 672.492 675.536 671.989 674.573 671.086L663.415 660.614C662.368 659.631 661.774 658.259 661.774 656.822V597.405C661.774 597.286 661.608 597.257 661.568 597.369C674.121 562.566 695.156 535.488 724.672 516.134C754.189 496.611 789.982 486.849 832.051 486.849H832.56L862.5 487.5L883.135 486.623L880.567 557.104C880.472 559.695 878.346 561.746 875.756 561.746ZM747.064 718.944C747.064 716.074 749.389 713.746 752.258 713.746H875.204C878.072 713.746 880.397 716.074 880.397 718.944V772.721C880.397 775.592 878.072 777.919 875.204 777.919H752.258C749.389 777.919 747.064 775.592 747.064 772.721V718.944Z" fill="url(#paint3_linear_129_40)"/>
<path d="M980.081 488.66C980.081 537.384 952.77 561.746 898.147 561.746H853.364C850.65 561.746 847.935 560.982 845.221 559.454C842.337 557.926 840.896 556.568 840.896 555.38V492.48C841.147 486.995 841.223 486.996 845.725 487.072C849 487.128 851.464 487 853.5 487L883.135 486.623C891.786 486.623 897.554 483.652 900.438 477.71C903.491 471.768 905.018 466.251 905.018 461.158V437.58C905.018 434.709 907.343 432.382 910.212 432.382H974.888C977.756 432.382 980.081 434.709 980.081 437.58V488.66ZM870.667 320.184C870.667 317.313 872.992 314.986 875.86 314.986H998.806C1001.67 314.986 1004 317.313 1004 320.184V373.961C1004 376.832 1001.67 379.159 998.806 379.159H875.86C872.992 379.159 870.667 376.832 870.667 373.961V320.184Z" fill="url(#paint4_linear_129_40)"/>
<defs>
<linearGradient id="paint0_linear_129_40" x1="75" y1="265" x2="1004" y2="816" gradientUnits="userSpaceOnUse">
<stop stop-color="#FF5722"/>
<stop offset="1" stop-color="#FF6C66"/>
</linearGradient>
<linearGradient id="paint1_linear_129_40" x1="75" y1="265" x2="1004" y2="816" gradientUnits="userSpaceOnUse">
<stop stop-color="#FF5722"/>
<stop offset="1" stop-color="#FF6C66"/>
</linearGradient>
<linearGradient id="paint2_linear_129_40" x1="75" y1="265" x2="1004" y2="816" gradientUnits="userSpaceOnUse">
<stop stop-color="#FF5722"/>
<stop offset="1" stop-color="#FF6C66"/>
</linearGradient>
<linearGradient id="paint3_linear_129_40" x1="75" y1="265" x2="1004" y2="816" gradientUnits="userSpaceOnUse">
<stop stop-color="#FF5722"/>
<stop offset="1" stop-color="#FF6C66"/>
</linearGradient>
<linearGradient id="paint4_linear_129_40" x1="75" y1="265" x2="1004" y2="816" gradientUnits="userSpaceOnUse">
<stop stop-color="#FF5722"/>
<stop offset="1" stop-color="#FF6C66"/>
</linearGradient>
</defs>
</svg>
