<svg width="125" height="125" viewBox="0 0 125 125" fill="none" xmlns="http://www.w3.org/2000/svg">
<path d="M63.1868 35.252C63.1868 32.4905 65.4254 30.252 68.1868 30.252H120C122.761 30.252 125 32.4905 125 35.252V53.4032C125 56.1646 122.761 58.4032 120 58.4032H86.5934C83.832 58.4032 81.5934 60.6418 81.5934 63.4032V119.79C81.5934 122.551 79.3548 124.79 76.5934 124.79H68.1868C65.4254 124.79 63.1868 122.551 63.1868 119.79V35.252Z" fill="url(#paint0_linear_154_3)"/>
<path d="M61.8132 35.4624C61.8132 32.701 59.5746 30.4624 56.8132 30.4624H5C2.23858 30.4624 0 32.701 0 35.4624V53.6137C0 56.3751 2.23857 58.6137 5 58.6137H38.4066C41.168 58.6137 43.4066 60.8522 43.4066 63.6137V120C43.4066 122.762 45.6452 125 48.4066 125H56.8132C59.5746 125 61.8132 122.762 61.8132 120V35.4624Z" fill="url(#paint1_linear_154_3)"/>
<path d="M0 5C0 2.23858 2.23858 0 5 0L98.1893 0C112.996 0 125 12.0036 125 26.8107V26.8107C125 27.5511 124.4 28.1513 123.659 28.1513L5 28.1513C2.23858 28.1513 0 25.9127 0 23.1513L0 5Z" fill="url(#paint2_linear_154_3)"/>
<defs>
<linearGradient id="paint0_linear_154_3" x1="63.1868" y1="30.252" x2="149.789" y2="86.8767" gradientUnits="userSpaceOnUse">
<stop stop-color="#FF6C66"/>
<stop offset="1" stop-color="#FF5722"/>
</linearGradient>
<linearGradient id="paint1_linear_154_3" x1="61.8132" y1="30.4624" x2="-24.7893" y2="87.0871" gradientUnits="userSpaceOnUse">
<stop stop-color="#FF6C66"/>
<stop offset="1" stop-color="#FF5722"/>
</linearGradient>
<linearGradient id="paint2_linear_154_3" x1="0" y1="0" x2="117.819" y2="46.3888" gradientUnits="userSpaceOnUse">
<stop stop-color="#FF6C66"/>
<stop offset="1" stop-color="#FF5722"/>
</linearGradient>
</defs>
</svg>
