<svg width="45" height="45" viewBox="0 0 45 45" fill="none" xmlns="http://www.w3.org/2000/svg">
<path d="M22.7473 15.8906C22.7473 13.1292 24.9858 10.8906 27.7473 10.8906H40C42.7614 10.8906 45 13.1292 45 15.8906V16.0251C45 18.7865 42.7614 21.0251 40 21.0251H34.3736C31.6122 21.0251 29.3736 23.2637 29.3736 26.0251V41.6111C29.3736 43.4409 27.8903 44.9242 26.0604 44.9242V44.9242C24.2306 44.9242 22.7473 43.4409 22.7473 41.6111V15.8906Z" fill="url(#paint0_linear_154_8)"/>
<path d="M22.2527 15.9663C22.2527 13.2049 20.0142 10.9663 17.2527 10.9663H5C2.23858 10.9663 0 13.2049 0 15.9663V16.1008C0 18.8622 2.23858 21.1008 5 21.1008H10.6264C13.3878 21.1008 15.6264 23.3393 15.6264 26.1008V41.6867C15.6264 43.5166 17.1097 44.9999 18.9396 44.9999V44.9999C20.7694 44.9999 22.2527 43.5166 22.2527 41.6867V15.9663Z" fill="url(#paint1_linear_154_8)"/>
<path d="M0 2.14286C0 0.959389 0.95939 0 2.14286 0L35.3481 0C40.6787 0 45 4.32128 45 9.65186V9.65186C45 9.91839 44.7839 10.1345 44.5174 10.1345L5 10.1345C2.23858 10.1345 0 7.89588 0 5.13445L0 2.14286Z" fill="url(#paint2_linear_154_8)"/>
<defs>
<linearGradient id="paint0_linear_154_8" x1="22.7473" y1="10.8906" x2="53.9242" y2="31.2755" gradientUnits="userSpaceOnUse">
<stop stop-color="#FF6C66"/>
<stop offset="1" stop-color="#FF5722"/>
</linearGradient>
<linearGradient id="paint1_linear_154_8" x1="22.2527" y1="10.9663" x2="-8.92416" y2="31.3512" gradientUnits="userSpaceOnUse">
<stop stop-color="#FF6C66"/>
<stop offset="1" stop-color="#FF5722"/>
</linearGradient>
<linearGradient id="paint2_linear_154_8" x1="0" y1="0" x2="42.415" y2="16.7" gradientUnits="userSpaceOnUse">
<stop stop-color="#FF6C66"/>
<stop offset="1" stop-color="#FF5722"/>
</linearGradient>
</defs>
</svg>
