<svg width="182" height="119" viewBox="0 0 182 119" fill="none" xmlns="http://www.w3.org/2000/svg">
<path d="M92 29.8C92 29.2478 92.4477 28.8 93 28.8H181C181.552 28.8 182 29.2478 182 29.8V54.6C182 55.1523 181.552 55.6 181 55.6H119.8C119.248 55.6 118.8 56.0478 118.8 56.6V117.8C118.8 118.352 118.352 118.8 117.8 118.8H93C92.4477 118.8 92 118.352 92 117.8V29.8Z" fill="url(#paint0_linear_220_340)"/>
<path d="M90 30C90 29.4477 89.5523 29 89 29H1C0.447715 29 0 29.4477 0 30V54.8C0 55.3523 0.447714 55.8 0.999999 55.8H62.2C62.7523 55.8 63.2 56.2477 63.2 56.8V118C63.2 118.552 63.6477 119 64.2 119H89C89.5523 119 90 118.552 90 118V30Z" fill="url(#paint1_linear_220_340)"/>
<path d="M0 1C0 0.447716 0.447715 0 1 0L162 0C173.046 0 182 8.95431 182 20V25.8C182 26.3523 181.552 26.8 181 26.8L0.999995 26.8C0.44771 26.8 0 26.3523 0 25.8L0 1Z" fill="url(#paint2_linear_220_340)"/>
<defs>
<linearGradient id="paint0_linear_220_340" x1="92" y1="28.8" x2="182" y2="118.8" gradientUnits="userSpaceOnUse">
<stop stop-color="#FF6C66"/>
<stop offset="1" stop-color="#FF5722"/>
</linearGradient>
<linearGradient id="paint1_linear_220_340" x1="90" y1="29" x2="0" y2="119" gradientUnits="userSpaceOnUse">
<stop stop-color="#FF6C66"/>
<stop offset="1" stop-color="#FF5722"/>
</linearGradient>
<linearGradient id="paint2_linear_220_340" x1="0" y1="0" x2="145.411" y2="87.5623" gradientUnits="userSpaceOnUse">
<stop stop-color="#FF6C66"/>
<stop offset="1" stop-color="#FF5722"/>
</linearGradient>
</defs>
</svg>
