<svg width="292" height="69" viewBox="0 0 292 69" fill="none" xmlns="http://www.w3.org/2000/svg">
<circle cx="34" cy="34.5" r="34" fill="#F9F9F9"/>
<path d="M48.5751 33.3097C49.2212 33.6983 49.2212 34.635 48.5751 35.0236L27.5154 47.6891C26.8489 48.0899 26 47.6099 26 46.8321L26 21.5012C26 20.7235 26.8489 20.2434 27.5154 20.6443L48.5751 33.3097Z" fill="#FF5F08"/>
<path d="M105.616 27.056L101.59 42.5H97.036L94.572 32.336L92.02 42.5H87.466L83.55 27.056H87.576L89.798 38.298L92.548 27.056H96.684L99.324 38.298L101.568 27.056H105.616ZM106.755 36.34C106.755 35.0787 106.989 33.9713 107.459 33.018C107.943 32.0647 108.595 31.3313 109.417 30.818C110.238 30.3047 111.155 30.048 112.167 30.048C113.032 30.048 113.787 30.224 114.433 30.576C115.093 30.928 115.599 31.39 115.951 31.962V30.224H119.713V42.5H115.951V40.762C115.584 41.334 115.071 41.796 114.411 42.148C113.765 42.5 113.01 42.676 112.145 42.676C111.147 42.676 110.238 42.4193 109.417 41.906C108.595 41.378 107.943 40.6373 107.459 39.684C106.989 38.716 106.755 37.6013 106.755 36.34ZM115.951 36.362C115.951 35.4233 115.687 34.6827 115.159 34.14C114.645 33.5973 114.015 33.326 113.267 33.326C112.519 33.326 111.881 33.5973 111.353 34.14C110.839 34.668 110.583 35.4013 110.583 36.34C110.583 37.2787 110.839 38.0267 111.353 38.584C111.881 39.1267 112.519 39.398 113.267 39.398C114.015 39.398 114.645 39.1267 115.159 38.584C115.687 38.0413 115.951 37.3007 115.951 36.362ZM129.276 39.31V42.5H127.362C125.998 42.5 124.935 42.17 124.172 41.51C123.41 40.8353 123.028 39.7427 123.028 38.232V33.348H121.532V30.224H123.028V27.232H126.79V30.224H129.254V33.348H126.79V38.276C126.79 38.6427 126.878 38.9067 127.054 39.068C127.23 39.2293 127.524 39.31 127.934 39.31H129.276ZM130.624 36.362C130.624 35.086 130.88 33.9713 131.394 33.018C131.922 32.0647 132.648 31.3313 133.572 30.818C134.51 30.3047 135.581 30.048 136.784 30.048C138.324 30.048 139.607 30.4513 140.634 31.258C141.675 32.0647 142.357 33.2013 142.68 34.668H138.676C138.338 33.7293 137.686 33.26 136.718 33.26C136.028 33.26 135.478 33.5313 135.068 34.074C134.657 34.602 134.452 35.3647 134.452 36.362C134.452 37.3593 134.657 38.1293 135.068 38.672C135.478 39.2 136.028 39.464 136.718 39.464C137.686 39.464 138.338 38.9947 138.676 38.056H142.68C142.357 39.4933 141.675 40.6227 140.634 41.444C139.592 42.2653 138.309 42.676 136.784 42.676C135.581 42.676 134.51 42.4193 133.572 41.906C132.648 41.3927 131.922 40.6593 131.394 39.706C130.88 38.7527 130.624 37.638 130.624 36.362ZM152.238 30.092C153.646 30.092 154.775 30.5613 155.626 31.5C156.477 32.424 156.902 33.7 156.902 35.328V42.5H153.162V35.834C153.162 35.0127 152.949 34.3747 152.524 33.92C152.099 33.4653 151.527 33.238 150.808 33.238C150.089 33.238 149.517 33.4653 149.092 33.92C148.667 34.3747 148.454 35.0127 148.454 35.834V42.5H144.692V26.22H148.454V31.874C148.835 31.3313 149.356 30.8987 150.016 30.576C150.676 30.2533 151.417 30.092 152.238 30.092ZM171.724 30.092C173.132 30.092 174.262 30.5613 175.112 31.5C175.963 32.424 176.388 33.7 176.388 35.328V42.5H172.648V35.834C172.648 35.0127 172.436 34.3747 172.01 33.92C171.585 33.4653 171.013 33.238 170.294 33.238C169.576 33.238 169.004 33.4653 168.578 33.92C168.153 34.3747 167.94 35.0127 167.94 35.834V42.5H164.178V26.22H167.94V31.874C168.322 31.3313 168.842 30.8987 169.502 30.576C170.162 30.2533 170.903 30.092 171.724 30.092ZM184.591 42.676C183.388 42.676 182.303 42.4193 181.335 41.906C180.381 41.3927 179.626 40.6593 179.069 39.706C178.526 38.7527 178.255 37.638 178.255 36.362C178.255 35.1007 178.533 33.9933 179.091 33.04C179.648 32.072 180.411 31.3313 181.379 30.818C182.347 30.3047 183.432 30.048 184.635 30.048C185.837 30.048 186.923 30.3047 187.891 30.818C188.859 31.3313 189.621 32.072 190.179 33.04C190.736 33.9933 191.015 35.1007 191.015 36.362C191.015 37.6233 190.729 38.738 190.157 39.706C189.599 40.6593 188.829 41.3927 187.847 41.906C186.879 42.4193 185.793 42.676 184.591 42.676ZM184.591 39.42C185.309 39.42 185.918 39.156 186.417 38.628C186.93 38.1 187.187 37.3447 187.187 36.362C187.187 35.3793 186.937 34.624 186.439 34.096C185.955 33.568 185.353 33.304 184.635 33.304C183.901 33.304 183.293 33.568 182.809 34.096C182.325 34.6093 182.083 35.3647 182.083 36.362C182.083 37.3447 182.317 38.1 182.787 38.628C183.271 39.156 183.872 39.42 184.591 39.42ZM210.632 30.224L207.31 42.5H203.152L201.216 34.536L199.214 42.5H195.078L191.734 30.224H195.496L197.234 39.002L199.302 30.224H203.284L205.374 38.958L207.09 30.224H210.632ZM218.621 28.948C217.961 28.948 217.419 28.7573 216.993 28.376C216.583 27.98 216.377 27.496 216.377 26.924C216.377 26.3373 216.583 25.8533 216.993 25.472C217.419 25.076 217.961 24.878 218.621 24.878C219.267 24.878 219.795 25.076 220.205 25.472C220.631 25.8533 220.843 26.3373 220.843 26.924C220.843 27.496 220.631 27.98 220.205 28.376C219.795 28.7573 219.267 28.948 218.621 28.948ZM220.491 30.224V42.5H216.729V30.224H220.491ZM230.06 39.31V42.5H228.146C226.782 42.5 225.718 42.17 224.956 41.51C224.193 40.8353 223.812 39.7427 223.812 38.232V33.348H222.316V30.224H223.812V27.232H227.574V30.224H230.038V33.348H227.574V38.276C227.574 38.6427 227.662 38.9067 227.838 39.068C228.014 39.2293 228.307 39.31 228.718 39.31H230.06ZM254.439 30.224L251.117 42.5H246.959L245.023 34.536L243.021 42.5H238.885L235.541 30.224H239.303L241.041 39.002L243.109 30.224H247.091L249.181 38.958L250.897 30.224H254.439ZM261.462 42.676C260.259 42.676 259.174 42.4193 258.206 41.906C257.252 41.3927 256.497 40.6593 255.94 39.706C255.397 38.7527 255.126 37.638 255.126 36.362C255.126 35.1007 255.404 33.9933 255.962 33.04C256.519 32.072 257.282 31.3313 258.25 30.818C259.218 30.3047 260.303 30.048 261.506 30.048C262.708 30.048 263.794 30.3047 264.762 30.818C265.73 31.3313 266.492 32.072 267.05 33.04C267.607 33.9933 267.886 35.1007 267.886 36.362C267.886 37.6233 267.6 38.738 267.028 39.706C266.47 40.6593 265.7 41.3927 264.718 41.906C263.75 42.4193 262.664 42.676 261.462 42.676ZM261.462 39.42C262.18 39.42 262.789 39.156 263.288 38.628C263.801 38.1 264.058 37.3447 264.058 36.362C264.058 35.3793 263.808 34.624 263.31 34.096C262.826 33.568 262.224 33.304 261.506 33.304C260.772 33.304 260.164 33.568 259.68 34.096C259.196 34.6093 258.954 35.3647 258.954 36.362C258.954 37.3447 259.188 38.1 259.658 38.628C260.142 39.156 260.743 39.42 261.462 39.42ZM273.644 32.27C274.084 31.5953 274.634 31.0673 275.294 30.686C275.954 30.29 276.687 30.092 277.494 30.092V34.074H276.46C275.521 34.074 274.817 34.2793 274.348 34.69C273.878 35.086 273.644 35.79 273.644 36.802V42.5H269.882V30.224H273.644V32.27ZM286.794 42.5L283.054 37.352V42.5H279.292V26.22H283.054V35.218L286.772 30.224H291.414L286.31 36.384L291.458 42.5H286.794Z" fill="#F9F9F9"/>
</svg>
